<?xml version="1.0" encoding="utf-8"?>
<!DOCTYPE svg PUBLIC "-//W3C//DTD SVG 1.1//EN" "http://www.w3.org/Graphics/SVG/1.1/DTD/svg11.dtd">
<svg version="1.1" baseProfile="full"
 xmlns="http://www.w3.org/2000/svg"
 xmlns:xlink="http://www.w3.org/1999/xlink"
 xmlns:ev="http://www.w3.org/2001/xml-events" 
  height="14px" 
  width="14px" 
>
<path fill="#18c5fe"
 d="M13.999,12.664 C13.999,12.664 13.6559999999999,13.007 13.6559999999999,13.007 C13.6559999999999,13.007 7.49299999999994,6.846 7.49299999999994,6.846 C7.49299999999994,6.846 1.3599999999999,12.976 1.3599999999999,12.976 C1.3599999999999,12.976 1.01900000000001,12.636 1.01900000000001,12.636 C1.01900000000001,12.636 7.15200000000004,6.505 7.15200000000004,6.505 C7.15200000000004,6.505 0.98900000000003,0.34399999999999 0.98900000000003,0.34399999999999 C0.98900000000003,0.34399999999999 1.3309999999999,0.00200000000001 1.3309999999999,0.00200000000001 C1.3309999999999,0.00200000000001 7.49499999999989,6.16300000000001 7.49499999999989,6.16300000000001 C7.49499999999989,6.16300000000001 13.6279999999999,0.03200000000001 13.6279999999999,0.03200000000001 C13.6279999999999,0.03200000000001 13.9690000000001,0.37200000000001 13.9690000000001,0.37200000000001 C13.9690000000001,0.37200000000001 7.83500000000004,6.50299999999999 7.83500000000004,6.50299999999999 C7.83500000000004,6.50299999999999 13.999,12.664 13.999,12.664 Z "/>
</svg>
