<?xml version="1.0" encoding="utf-8"?>
<!-- Generator: Adobe Illustrator 18.0.0, SVG Export Plug-In . SVG Version: 6.00 Build 0)  -->
<!DOCTYPE svg PUBLIC "-//W3C//DTD SVG 1.1//EN" "http://www.w3.org/Graphics/SVG/1.1/DTD/svg11.dtd">
<svg version="1.1" id="Icons" xmlns="http://www.w3.org/2000/svg" xmlns:xlink="http://www.w3.org/1999/xlink" x="0px" y="0px"
	 viewBox="0 0 24 24" enable-background="new 0 0 24 24" xml:space="preserve">
<g>
	<path fill="#59595C" d="M0,9c0,0.1,0.1,0.3,0.1,0.4l14.5,14.5c0.1,0.1,0.2,0.1,0.4,0.1c0.1,0,0.3-0.1,0.4-0.1l8.5-8.5
		c0.1-0.1,0.1-0.2,0.1-0.4s-0.1-0.3-0.1-0.4L9.3,0.2C9.3,0.1,9.1,0,9,0L0.5,0h0C0.4,0,0.2,0.1,0.1,0.1C0.1,0.2,0,0.4,0,0.5L0,9z
		 M8,5.5C8,6.9,6.9,8,5.5,8S3,6.9,3,5.5S4.1,3,5.5,3S8,4.1,8,5.5z"/>
</g>
</svg>
