<?xml version="1.0" encoding="utf-8"?>
<!-- Generator: Adobe Illustrator 18.0.0, SVG Export Plug-In . SVG Version: 6.00 Build 0)  -->
<!DOCTYPE svg PUBLIC "-//W3C//DTD SVG 1.1//EN" "http://www.w3.org/Graphics/SVG/1.1/DTD/svg11.dtd">
<svg version="1.1" id="Your_Icon" xmlns="http://www.w3.org/2000/svg" xmlns:xlink="http://www.w3.org/1999/xlink" x="0px" y="0px"
	 viewBox="13.4 -2.2 69.4 61.9" enable-background="new 13.4 -2.2 69.4 61.9" xml:space="preserve">
<path fill="#494949" d="M68.8,49.1c3.4-0.1,6.9-0.3,10.3-0.4c0.1,1.4,0.1,2.9,0.2,4.4c0,0.2,0,0.5,0,0.7c0,0.2-0.1,0.4-0.3,0.5c-0.1,0-0.4,0-0.6,0
	c-3,0.1-6.1,0.2-9.1,0.3c-0.4-0.3-0.4-1.2-0.4-2C68.9,51.5,68.8,50.2,68.8,49.1z"/>
<path fill="#494949" d="M68.7,47.2c-0.5-14.3-1.1-28.7-1.6-43c0,0,0.1,0,0.1,0c3.3-0.1,6.8-0.3,10.2-0.4c0,0,0,0,0,0c0.5,14.3,1.1,28.7,1.6,43
	c0,0,0,0,0,0C75.6,47,72.1,47.1,68.7,47.2C68.7,47.2,68.7,47.2,68.7,47.2z"/>
<path fill="#494949" d="M67,2.6c0-0.8-0.1-1.5-0.1-2.2c0-0.5-0.1-1.2,0-1.6c0-0.1,0.1-0.3,0.2-0.3c0.1,0,0.4,0,0.6,0c2.9-0.1,5.6-0.2,8.5-0.3
	c0.2,0,0.5-0.1,0.6,0c0.1,0,0.2,0.2,0.2,0.3c0.2,0.4,0.1,1.1,0.1,1.6c0,0.8,0.1,1.5,0.1,2.2C73.9,2.4,70.5,2.5,67,2.6
	C67,2.6,67,2.6,67,2.6z"/>
<path fill="#494949" d="M15.9,48.2c3.9,0.4,7.8,0.9,11.7,1.3c-0.2,1.6-0.3,2.8-0.5,4.4c0,0.2-0.1,0.5-0.1,0.7c-0.1,0.2-0.2,0.4-0.4,0.4
	c-0.2,0-0.5,0-0.7-0.1c-3.2-0.4-6.4-0.7-9.6-1.1c-0.2,0-0.5,0-0.7-0.1c-0.2-0.1-0.3-0.6-0.3-0.9c0.1-0.8,0.2-1.5,0.3-2.3
	C15.7,49.7,15.8,48.9,15.9,48.2z"/>
<path fill="#494949" d="M16.1,46.2c1.6-14.1,3.2-28.3,4.8-42.4c0-0.1,0-0.3,0-0.3c0,0,0,0,0.1,0c0,0,0,0,0,0c3.8,0.4,7.8,0.9,11.6,1.3c0,0,0,0,0,0
	c-1.6,14.2-3.2,28.5-4.8,42.7c0,0-0.1,0-0.1,0C23.9,47.1,20,46.7,16.1,46.2C16.1,46.3,16.1,46.3,16.1,46.2z"/>
<path fill="#494949" d="M21.1,1.9c0.1-0.7,0.2-1.5,0.3-2.2c0-0.3,0.1-0.7,0.1-1.1c0.1-0.3,0.2-0.7,0.5-0.7c0.2,0,0.5,0,0.7,0.1
	C25.9-1.7,29-1.4,32.2-1c0.2,0,0.6,0,0.7,0.1c0,0,0.1,0.1,0.1,0.2c0.2,0.4,0,1.2,0,1.9c-0.1,0.7-0.2,1.4-0.2,2.1
	C28.9,2.8,25.1,2.4,21.1,1.9C21.2,1.9,21.1,1.9,21.1,1.9z"/>
<path fill="#494949" d="M65,48.1c-3.5,0.4-7.1,0.9-10.6,1.3c0.2,1.5,0.4,2.8,0.5,4.3c0,0.2,0.1,0.5,0.1,0.7c0.1,0.2,0.2,0.4,0.3,0.4
	c0.1,0,0.4,0,0.6-0.1c2.9-0.4,5.8-0.7,8.7-1.1c0.2,0,0.5,0,0.6-0.1c0.2-0.1,0.2-0.5,0.2-0.8c0-0.2,0-0.4-0.1-0.6
	C65.3,50.9,65.1,49.5,65,48.1z"/>
<path fill="#494949" d="M64.7,46.2C62.9,32,61.1,17.7,59.4,3.5c-3.2,0.4-6.6,0.8-9.9,1.2c-0.2,0-0.5,0-0.7,0.1c0,0-0.1,0,0,0
	c1.8,14.2,3.6,28.5,5.3,42.7c0,0,0,0,0,0C57.7,47.1,61.2,46.7,64.7,46.2C64.7,46.2,64.7,46.2,64.7,46.2z"/>
<path fill="#494949" d="M59.2,1.9c-0.2-1.1-0.2-2.2-0.4-3.3c0-0.3-0.2-0.7-0.4-0.8c-0.1,0-0.4,0-0.6,0.1C54.8-1.7,51.9-1.3,49-1
	c-0.2,0-0.5,0-0.6,0.1c-0.2,0.1-0.2,0.5-0.2,0.8c0.1,1.1,0.3,2.2,0.4,3.3C52.1,2.8,55.6,2.4,59.2,1.9C59.2,2,59.2,2,59.2,1.9z"/>
<path fill="#494949" d="M46,3.3c-3.5,0.4-7.1,0.8-10.6,1.1c-0.2-1.4-0.3-2.9-0.5-4.3c0-0.2-0.1-0.5,0-0.7C34.9-0.7,35-1,35.1-1
	c0.1-0.1,0.4-0.1,0.6-0.1c3.1-0.3,6.3-0.7,9.3-1c0.5,0.3,0.5,1.2,0.5,1.9C45.7,1,45.9,2.2,46,3.3z"/>
<path fill="#494949" d="M46.2,5.2c1.5,14.3,3.1,28.5,4.6,42.8c0,0-0.1,0-0.2,0c-3.4,0.4-7,0.8-10.4,1.1C38.7,35,37.2,20.6,35.6,6.4c0,0,0.1,0,0.1,0
	C39.2,6,42.7,5.6,46.2,5.2C46.2,5.2,46.2,5.2,46.2,5.2z"/>
<path fill="#494949" d="M51,49.6c0.1,0.8,0.2,1.4,0.2,2.2c0.1,0.5,0.2,1.2,0.1,1.6c0,0.1-0.1,0.3-0.2,0.3c-0.2,0.1-0.4,0.1-0.6,0.1
	c-2.9,0.3-5.8,0.6-8.7,0.9c-0.2,0-0.5,0.1-0.6,0.1c-0.2,0-0.4-0.5-0.4-0.8c-0.2-1.1-0.2-2.2-0.4-3.3C43.9,50.3,47.5,50,51,49.6
	C51,49.6,51,49.6,51,49.6z"/>
<path fill="#494949" d="M82.8,59.5c0,0.1-0.6,0.2-1.3,0.2H14.7c-0.7,0-1.3-0.1-1.3-0.2v-3.4c0-0.1,0.6-0.2,1.3-0.2h66.7c0.7,0,1.3,0.1,1.3,0.2
	L82.8,59.5L82.8,59.5z"/>
</svg>
