<?xml version="1.0" encoding="utf-8"?>
<!-- Generator: Adobe Illustrator 18.0.0, SVG Export Plug-In . SVG Version: 6.00 Build 0)  -->
<!DOCTYPE svg PUBLIC "-//W3C//DTD SVG 1.1//EN" "http://www.w3.org/Graphics/SVG/1.1/DTD/svg11.dtd">
<svg version="1.1" id="Icons" xmlns="http://www.w3.org/2000/svg" xmlns:xlink="http://www.w3.org/1999/xlink" x="0px" y="0px"
	 viewBox="0 0 20 24" enable-background="new 0 0 20 24" xml:space="preserve">
<g>
	<path fill="#59595C" d="M19.5,4h-17C1.7,4,1,3.3,1,2.5C1,1.7,1.7,1,2.5,1h17C19.8,1,20,0.8,20,0.5S19.8,0,19.5,0h-17
		C1.1,0,0,1.1,0,2.5c0,0.1,0,0.2,0,0.3c0,0,0,0.1,0,0.2v18.5C0,22.9,1.1,24,2.5,24h17c0.3,0,0.5-0.2,0.5-0.5v-19
		C20,4.2,19.8,4,19.5,4z M14,19H5c-0.3,0-0.5-0.2-0.5-0.5c0-3,1.6-4.5,3.2-5.1C7,12.8,6.5,12,6.5,11c0-1.7,1.3-3,3-3s3,1.3,3,3
		c0,1-0.5,1.8-1.2,2.4c1.6,0.6,3.2,2.1,3.2,5.1C14.5,18.8,14.3,19,14,19z"/>
	<path fill="#59595C" d="M2.5,2C2.2,2,2,2.2,2,2.5S2.2,3,2.5,3h16C18.8,3,19,2.8,19,2.5S18.8,2,18.5,2H2.5z"/>
</g>
</svg>
