<?xml version="1.0" encoding="utf-8"?>
<!-- Generator: Adobe Illustrator 18.0.0, SVG Export Plug-In . SVG Version: 6.00 Build 0)  -->
<!DOCTYPE svg PUBLIC "-//W3C//DTD SVG 1.1//EN" "http://www.w3.org/Graphics/SVG/1.1/DTD/svg11.dtd">
<svg version="1.1" id="Layer_1" xmlns="http://www.w3.org/2000/svg" xmlns:xlink="http://www.w3.org/1999/xlink" x="0px" y="0px"
	 viewBox="37 -41.6 69.8 69.8" enable-background="new 37 -41.6 69.8 69.8" xml:space="preserve">
<path fill="#494949" d="M101.4-10L88.3,3.1c-7.2,7.2-19,7.2-26.2,0c-1.1-1.1-2-2.4-2.8-3.7l6.1-6.1c0.3-0.3,0.6-0.5,1-0.7c0.4,1.4,1.2,2.8,2.3,3.9
	c3.6,3.6,9.5,3.6,13.1,0l13.1-13.1c3.6-3.6,3.6-9.5,0-13.1c-3.6-3.6-9.5-3.6-13.1,0L77.1-25c-3.8-1.5-7.8-1.9-11.8-1.3l9.9-9.9
	c7.2-7.2,19-7.2,26.2,0C108.6-29,108.6-17.3,101.4-10z M66.7,11.5l-4.7,4.7c-3.6,3.6-9.5,3.6-13.1,0c-3.6-3.6-3.6-9.5,0-13.1
	L62.1-10c3.6-3.6,9.5-3.6,13.1,0c1.1,1.1,1.9,2.5,2.3,3.9c0.3-0.2,0.7-0.4,1-0.7l6.1-6.1c-0.8-1.3-1.7-2.6-2.8-3.7
	c-7.2-7.2-19-7.2-26.2,0L42.4-3.5c-7.2,7.2-7.2,19,0,26.2c7.2,7.2,19,7.2,26.2,0l9.9-9.9C74.6,13.4,70.5,13,66.7,11.5z"/>
</svg>
