<?xml version="1.0" encoding="utf-8"?>
<!-- Generator: Adobe Illustrator 18.0.0, SVG Export Plug-In . SVG Version: 6.00 Build 0)  -->
<!DOCTYPE svg PUBLIC "-//W3C//DTD SVG 1.1//EN" "http://www.w3.org/Graphics/SVG/1.1/DTD/svg11.dtd">
<svg version="1.1" id="Your_Icon" xmlns="http://www.w3.org/2000/svg" xmlns:xlink="http://www.w3.org/1999/xlink" x="0px" y="0px"
	 viewBox="17.2 -2.6 68.1 74.1" enable-background="new 17.2 -2.6 68.1 74.1" xml:space="preserve">
<polygon  fill="#494949" points="72,5.6 72,-2.6 66.9,-2.6 66.9,10 61.7,10 61.7,5.6 35.7,5.6 35.7,-2.6 30.6,-2.6 30.6,10 26.1,10 26.1,5.6 
	17.2,5.6 17.2,14.4 85.4,14.4 85.4,5.6 "/>
<rect fill="#494949" x="35.7" y="20.4" width="13.3" height="12.6"/>
<rect fill="#494949" x="53.5" y="20.4" width="13.3" height="12.6"/>
<rect fill="#494949" x="72" y="20.4" width="13.3" height="12.6"/>
<rect fill="#494949" x="17.2" y="38.9" width="13.3" height="13.3"/>
<rect fill="#494949" x="35.7" y="38.9" width="13.3" height="13.3"/>
<rect fill="#494949" x="53.5" y="38.9" width="13.3" height="13.3"/>
<rect fill="#494949" x="72" y="38.9" width="13.3" height="13.3"/>
<rect fill="#494949" x="17.2" y="57.4" width="13.3" height="14.1"/>
<rect fill="#494949" x="35.7" y="57.4" width="13.3" height="14.1"/>
<rect fill="#494949" x="53.5" y="57.4" width="13.3" height="14.1"/>
</svg>
