<?xml version="1.0" encoding="utf-8"?>
<!-- Generator: Adobe Illustrator 18.0.0, SVG Export Plug-In . SVG Version: 6.00 Build 0)  -->
<!DOCTYPE svg PUBLIC "-//W3C//DTD SVG 1.1//EN" "http://www.w3.org/Graphics/SVG/1.1/DTD/svg11.dtd">
<svg version="1.1" id="Icons" xmlns="http://www.w3.org/2000/svg" xmlns:xlink="http://www.w3.org/1999/xlink" x="0px" y="0px"
	 viewBox="0 0 24 20" enable-background="new 0 0 24 20" xml:space="preserve">
<g>
	<path fill="#59595C" d="M22,2.9c-1.1,0-2,0.9-2,2c0,0.9,0.6,1.6,1.4,1.9C21,8,19.8,11,17,11c-2.9,0-4.1-4.5-4.4-6.1
		c1.1-0.3,1.9-1.2,1.9-2.4C14.5,1.1,13.4,0,12,0S9.5,1.1,9.5,2.5c0,1.2,0.8,2.2,1.9,2.4C11.1,6.5,9.9,11,7,11c-2.9,0-4-3.1-4.4-4.3
		C3.4,6.5,4,5.7,4,4.8c0-1.1-0.9-2-2-2s-2,0.9-2,2c0,1,0.7,1.8,1.6,2l1.9,10.8C3.6,17.8,3.8,18,4,18h16c0.2,0,0.4-0.2,0.5-0.4
		l2-10.7c0.9-0.2,1.6-1,1.6-1.9C24,3.8,23.1,2.9,22,2.9z"/>
	<path fill="#59595C" d="M20,19H4c-0.3,0-0.5,0.2-0.5,0.5S3.7,20,4,20h16c0.3,0,0.5-0.2,0.5-0.5S20.3,19,20,19z"/>
</g>
</svg>
