<?xml version="1.0" encoding="utf-8"?>
<!-- Generator: Adobe Illustrator 18.0.0, SVG Export Plug-In . SVG Version: 6.00 Build 0)  -->
<!DOCTYPE svg PUBLIC "-//W3C//DTD SVG 1.1//EN" "http://www.w3.org/Graphics/SVG/1.1/DTD/svg11.dtd">
<svg version="1.1" id="Layer_1" xmlns="http://www.w3.org/2000/svg" xmlns:xlink="http://www.w3.org/1999/xlink" x="0px" y="0px"
	 viewBox="-148.1 -186.8 74.1 74.1" enable-background="new -148.1 -186.8 74.1 74.1" xml:space="preserve">
<path fill="#494949" d="M-111.1-186.8c-20.5,0-37,16.6-37,37s16.6,37,37,37c20.5,0,37-16.6,37-37S-90.6-186.8-111.1-186.8z M-99.1-132.8
	c-2.2,2.4-5.3,3.8-9.3,4.3v6.2h-5.2v-6.2c-6.8-0.7-11-4.6-12.6-11.8l8-2.1c0.7,4.5,3.2,6.8,7.4,6.8c2,0,3.4-0.5,4.3-1.5
	c0.9-1,1.4-2.1,1.4-3.5c0-1.4-0.5-2.5-1.4-3.2c-0.9-0.7-3-1.7-6.1-2.8c-2.9-1-5.1-2-6.7-2.9c-1.6-1-2.9-2.3-3.9-4.1
	c-1-1.7-1.5-3.8-1.5-6.1c0-3,0.9-5.8,2.7-8.2c1.8-2.4,4.6-3.9,8.4-4.4v-4.8h5.2v4.8c5.8,0.7,9.6,4,11.3,9.9l-7.2,2.9
	c-1.4-4-3.6-6-6.5-6c-1.5,0-2.6,0.4-3.5,1.3c-0.9,0.9-1.3,2-1.3,3.3c0,1.3,0.4,2.3,1.3,3c0.9,0.7,2.7,1.6,5.5,2.6
	c3.1,1.1,5.5,2.2,7.3,3.2c1.8,1,3.2,2.4,4.2,4.1c1,1.8,1.6,3.8,1.6,6.2C-95.9-138.3-97-135.2-99.1-132.8z"/>
</svg>
