<?xml version="1.0" encoding="utf-8"?>
<!-- Generator: Adobe Illustrator 18.0.0, SVG Export Plug-In . SVG Version: 6.00 Build 0)  -->
<!DOCTYPE svg PUBLIC "-//W3C//DTD SVG 1.1//EN" "http://www.w3.org/Graphics/SVG/1.1/DTD/svg11.dtd">
<svg version="1.1" id="Layer_1" xmlns="http://www.w3.org/2000/svg" xmlns:xlink="http://www.w3.org/1999/xlink" x="0px" y="0px"
	 viewBox="22.1 -2.1 59 73.6" enable-background="new 22.1 -2.1 59 73.6" xml:space="preserve">
<path fill="#494949" d="M66.7,45H55.9c-0.5,0-0.9,0.4-0.9,0.9c0,0.2,0.1,0.5,0.3,0.6l7.6,7.6h0c0.2,0.2,0.4,0.3,0.6,0.3c0.3,0,0.6-0.2,0.7-0.4
	c1.9-2.2,3.1-4.9,3.3-7.9c0-0.1,0-0.1,0-0.2C67.5,45.4,67.1,45,66.7,45z"/>
<path fill="#494949" d="M52.9,42.4h11.9v0c0,0,0,0,0,0c0.5,0,0.8-0.4,0.8-0.9c-0.4-6.9-5.9-12.4-12.8-12.8l0,0c-0.5,0-0.8,0.4-0.8,0.9v11.9
	C52.1,42.1,52.4,42.4,52.9,42.4z"/>
<path fill="#494949" d="M58.1,53.2C58.1,53.2,58.1,53.2,58.1,53.2l-8.8-8.8v0c-0.2-0.2-0.2-0.4-0.2-0.6h0V31.3c0-0.5-0.4-0.8-0.8-0.8l0,0
	c-7.2,0.4-12.8,6.4-12.8,13.7c0,7.6,6.1,13.7,13.7,13.7c3.4,0,6.6-1.3,9-3.4v0c0.2-0.2,0.3-0.4,0.3-0.6
	C58.4,53.4949496,58.3,53.4,58.1,53.2L58.1,53.2z"/>
<path fill="#494949" d="M51.4,9.2c1.9,0,3.5-1.6,3.5-3.5c0-1.9-1.6-3.5-3.5-3.5c-1.9,0-3.5,1.6-3.5,3.5C47.9,7.6,49.5,9.2,51.4,9.2z"/>
<path fill="#494949" d="M71.4,2.1H61c-1.1-2.1-3-3.7-5.4-4.2c0,0,0,0,0,0c-0.1,0-0.1,0-0.1,0c-0.3,0-0.6,0.3-0.6,0.6c0,0.2,0.2,0.4,0.4,0.5
	c2.5,1.4,4.2,4,4.2,7H66c4.4,0,8,3.6,8,8v2.5c0,1.3-1.1,2.4-2.4,2.4H31.3c-1.3,0-2.4-1.1-2.4-2.4V14c0-4.4,3.6-8,8-8h6.6
	c0-1.4,0.4-2.7,1-3.9H31.8c-5.4,0-9.7,4.4-9.7,9.7v49.9v0c0,5.4,4.3,9.7,9.7,9.7h39.5c5.4,0,9.7-4.3,9.7-9.7v0V11.8
	C81.1,6.5,76.7,2.1,71.4,2.1z M71.5,60.6c0,1.3-1.1,2.4-2.4,2.4H33.8c-1.3,0-2.4-1.1-2.4-2.4V26.8c0-1.3,1.1-2.4,2.4-2.4h35.4
	c1.3,0,2.4,1.1,2.4,2.4L71.5,60.6L71.5,60.6z"/>
</svg>
