<?xml version="1.0" encoding="utf-8"?>
<!-- Generator: Adobe Illustrator 18.0.0, SVG Export Plug-In . SVG Version: 6.00 Build 0)  -->
<!DOCTYPE svg PUBLIC "-//W3C//DTD SVG 1.1//EN" "http://www.w3.org/Graphics/SVG/1.1/DTD/svg11.dtd">
<svg version="1.1" id="Icons" xmlns="http://www.w3.org/2000/svg" xmlns:xlink="http://www.w3.org/1999/xlink" x="0px" y="0px"
	 viewBox="0 0 16 24" enable-background="new 0 0 16 24" xml:space="preserve">
<path fill="#59595C" d="M8,0C3.6,0,0,3.6,0,8c0,4.2,7.3,15.3,7.6,15.8C7.7,23.9,7.8,24,8,24c0.2,0,0.3-0.1,0.4-0.2
	C8.7,23.3,16,12.2,16,8C16,3.6,12.4,0,8,0z M8,11.5c-1.9,0-3.5-1.6-3.5-3.5c0-1.9,1.6-3.5,3.5-3.5s3.5,1.6,3.5,3.5
	C11.5,9.9,9.9,11.5,8,11.5z"/>
</svg>
