<?xml version="1.0" encoding="utf-8"?>
<!-- Generator: Adobe Illustrator 18.0.0, SVG Export Plug-In . SVG Version: 6.00 Build 0)  -->
<!DOCTYPE svg PUBLIC "-//W3C//DTD SVG 1.1//EN" "http://www.w3.org/Graphics/SVG/1.1/DTD/svg11.dtd">
<svg version="1.1" id="Icons" xmlns="http://www.w3.org/2000/svg" xmlns:xlink="http://www.w3.org/1999/xlink" x="0px" y="0px"
	 viewBox="0 0 24 24" enable-background="new 0 0 24 24" xml:space="preserve">
<path fill="#59595C" d="M24,8.8c-0.1-0.2-0.3-0.3-0.5-0.3h-8.1l-2.9-8.2C12.4,0.1,12.2,0,12,0s-0.4,0.1-0.5,0.3L8.6,8.5H0.5
	C0.3,8.5,0.1,8.6,0,8.8C0,9,0,9.3,0.2,9.4l6.7,5.3L4,23.3c-0.1,0.2,0,0.4,0.2,0.6c0.2,0.1,0.4,0.1,0.6,0l7.2-5.3l7.2,5.3
	c0.1,0.1,0.2,0.1,0.3,0.1c0.1,0,0.2,0,0.3-0.1c0.2-0.1,0.2-0.4,0.2-0.6l-2.9-8.7l6.7-5.3C24,9.3,24,9,24,8.8z"/>
</svg>
