<?xml version="1.0" encoding="utf-8"?>
<!-- Generator: Adobe Illustrator 18.0.0, SVG Export Plug-In . SVG Version: 6.00 Build 0)  -->
<!DOCTYPE svg PUBLIC "-//W3C//DTD SVG 1.1//EN" "http://www.w3.org/Graphics/SVG/1.1/DTD/svg11.dtd">
<svg version="1.1" id="Слой_1" xmlns="http://www.w3.org/2000/svg" xmlns:xlink="http://www.w3.org/1999/xlink" x="0px" y="0px"
	 viewBox="18 1.1 66.7 66.7" enable-background="new 18 1.1 66.7 66.7" xml:space="preserve">
<g>
	<path fill="#494949" d="M51.3,1.1C32.9,1.1,18,16.1,18,34.4s15,33.3,33.3,33.3s33.3-15,33.3-33.3S69.7,1.1,51.3,1.1z M76.9,38.1
		C75.3,49.5,66.3,58.4,55,60.1V53h-7.4v7.1c-11.3-1.6-20.3-10.6-21.9-21.9h7.1v-7.4h-7.1c1.6-11.3,10.6-20.3,21.9-21.9v7.1H55V8.8
		c11.3,1.6,20.3,10.6,21.9,21.9h-7.1v7.4H76.9z"/>
	<path fill="#494949" d="M51.3,23.3c-6.1,0-11.1,5-11.1,11.1s5,11.1,11.1,11.1s11.1-5,11.1-11.1S57.4,23.3,51.3,23.3z M51.3,38.1
		c-2.1,0-3.7-1.6-3.7-3.7s1.6-3.7,3.7-3.7s3.7,1.6,3.7,3.7S53.4,38.1,51.3,38.1z"/>
</g>
</svg>
