<?xml version="1.0" encoding="utf-8"?>
<!-- Generator: Adobe Illustrator 18.0.0, SVG Export Plug-In . SVG Version: 6.00 Build 0)  -->
<!DOCTYPE svg PUBLIC "-//W3C//DTD SVG 1.1//EN" "http://www.w3.org/Graphics/SVG/1.1/DTD/svg11.dtd">
<svg version="1.1" id="Glyphs_-_Ecom" xmlns="http://www.w3.org/2000/svg" xmlns:xlink="http://www.w3.org/1999/xlink" x="0px"
	 y="0px" viewBox="23.3 15.4 50.2 50" enable-background="new 23.3 15.4 50.2 50" xml:space="preserve">
<path fill="#494949" id="Discount_1_" d="M46.8,15.4l-21.5,2l-2,21.5l26.5,26.5l23.7-23.7L46.8,15.4z M37,29.1c-1.5,1.5-3.7,1.5-5.2,0
	c-1.5-1.5-1.5-3.7,0-5.2c1.5-1.5,3.7-1.5,5.2,0C38.5,25.3,38.5,27.7,37,29.1z M38.1,35.8c0-2,1.7-3.7,3.7-3.7c2,0,3.7,1.7,3.7,3.7
	c0,2-1.7,3.7-3.7,3.7C39.8,39.5,38.1,37.9,38.1,35.8z M43.7,48.8H40l13-16.7h3.7L43.7,48.8z M54.8,48.8c-2,0-3.7-1.7-3.7-3.7
	s1.7-3.7,3.7-3.7c2,0,3.7,1.7,3.7,3.7S56.8,48.8,54.8,48.8z M43.7,35.8c0-1.1-0.7-1.9-1.9-1.9c-1.1,0-1.9,0.7-1.9,1.9
	c0,1.1,0.7,1.9,1.9,1.9C42.7,37.7,43.7,36.7,43.7,35.8z M54.8,43.2c-1.1,0-1.9,0.7-1.9,1.9c0,1.1,0.7,1.9,1.9,1.9
	c1.1,0,1.9-0.7,1.9-1.9C56.6,44,55.7,43.2,54.8,43.2z"/>
</svg>
