<?xml version="1.0" encoding="utf-8"?>
<!DOCTYPE svg PUBLIC "-//W3C//DTD SVG 1.1//EN" "http://www.w3.org/Graphics/SVG/1.1/DTD/svg11.dtd">
<svg version="1.1" baseProfile="full"
 xmlns="http://www.w3.org/2000/svg"
 xmlns:xlink="http://www.w3.org/1999/xlink"
 xmlns:ev="http://www.w3.org/2001/xml-events" 
  height="22px" 
  width="31px" 
>
<path fill="rgb( 235, 235, 235 )"
 d="M30.979,5.04900000000089 C30.979,5.04900000000089 30.979,19.5550000000003 30.979,19.5550000000003 C30.979,19.5550000000003 22.3579999999999,11.8179999999993 22.3579999999999,11.8179999999993 C22.3579999999999,11.8179999999993 30.979,5.04900000000089 30.979,5.04900000000089 ZM0.32600000000002,3.11399999999958 C0.32600000000002,3.11399999999958 0.32600000000002,0.21199999999953 0.32600000000002,0.21199999999953 C0.32600000000002,0.21199999999953 30.979,0.21199999999953 30.979,0.21199999999953 C30.979,0.21199999999953 30.979,3.11399999999958 30.979,3.11399999999958 C30.979,3.11399999999958 15.653,15.6869999999999 15.653,15.6869999999999 C15.653,15.6869999999999 0.32600000000002,3.11399999999958 0.32600000000002,3.11399999999958 ZM0.32600000000002,19.5550000000003 C0.32600000000002,19.5550000000003 0.32600000000002,5.04900000000089 0.32600000000002,5.04900000000089 C0.32600000000002,5.04900000000089 8.947,11.8179999999993 8.947,11.8179999999993 C8.947,11.8179999999993 0.32600000000002,19.5550000000003 0.32600000000002,19.5550000000003 ZM15.653,17.6209999999992 C15.653,17.6209999999992 21.4,12.7849999999999 21.4,12.7849999999999 C21.4,12.7849999999999 30.979,21.4889999999996 30.979,21.4889999999996 C30.979,21.4889999999996 0.32600000000002,21.4889999999996 0.32600000000002,21.4889999999996 C0.32600000000002,21.4889999999996 9.90499999999997,12.7849999999999 9.90499999999997,12.7849999999999 C9.90499999999997,12.7849999999999 15.653,17.6209999999992 15.653,17.6209999999992 Z "/>
</svg>
