<?xml version="1.0" encoding="utf-8"?>
<!DOCTYPE svg PUBLIC "-//W3C//DTD SVG 1.1//EN" "http://www.w3.org/Graphics/SVG/1.1/DTD/svg11.dtd">
<svg version="1.1" baseProfile="full"
 xmlns="http://www.w3.org/2000/svg"
 xmlns:xlink="http://www.w3.org/1999/xlink"
 xmlns:ev="http://www.w3.org/2001/xml-events" 
  height="67px" 
  width="82px" 
>
<path fill="rgb( 163, 163, 163 )"
 d="M32.364,0.284 C29.841,1.829 26.707,3.819 22.965,6.256 C19.221,8.694 15.681,11.658 12.345,15.15 C9.089,18.563 6.321,22.442 4.044,26.787 C1.765,31.132 0.626,35.944 0.626,41.224 C0.626,48.697 2.131,54.73 5.142,59.319 C8.152,63.908 13.157,66.202 20.157,66.202 C24.632,66.202 28.153,64.719 30.716,61.747 C33.28,58.777 34.561,55.582 34.561,52.164 C34.561,47.364 33.116,43.722 30.228,41.239 C27.338,38.758 23.371,37.516 18.326,37.516 C18.326,37.516 12.467,37.516 12.467,37.516 C12.955,33.299 13.809,29.852 15.03,27.174 C16.251,24.498 18,21.942 20.279,19.509 C22.721,16.915 25.12,14.826 27.481,13.243 C29.841,11.662 32.933,9.775 36.759,7.584 C36.759,7.584 32.364,0.284 32.364,0.284 ZM77.53,0.284 C75.007,1.829 71.873,3.819 68.131,6.256 C64.387,8.694 60.847,11.658 57.511,15.15 C54.255,18.563 51.487,22.442 49.21,26.787 C46.931,31.132 45.792,35.944 45.792,41.224 C45.792,48.697 47.297,54.73 50.308,59.319 C53.318,63.908 58.323,66.202 65.323,66.202 C69.798,66.202 73.319,64.719 75.882,61.747 C78.446,58.777 79.727,55.582 79.727,52.164 C79.727,47.364 78.282,43.722 75.394,41.239 C72.504,38.758 68.537,37.516 63.492,37.516 C63.492,37.516 57.633,37.516 57.633,37.516 C58.121,33.299 58.954,29.871 60.135,27.235 C61.314,24.599 63.084,22.023 65.445,19.509 C67.887,16.915 70.286,14.826 72.647,13.243 C75.007,11.662 78.099,9.775 81.925,7.584 C81.925,7.584 77.53,0.284 77.53,0.284 Z "/>
</svg>
