<?xml version="1.0" encoding="utf-8"?>
<!-- Generator: Adobe Illustrator 18.0.0, SVG Export Plug-In . SVG Version: 6.00 Build 0)  -->
<!DOCTYPE svg PUBLIC "-//W3C//DTD SVG 1.1//EN" "http://www.w3.org/Graphics/SVG/1.1/DTD/svg11.dtd">
<svg version="1.1" id="Layer_1" xmlns="http://www.w3.org/2000/svg" xmlns:xlink="http://www.w3.org/1999/xlink" x="0px" y="0px"
	 viewBox="16.3 16.5 70.1 69.2" enable-background="new 16.3 16.5 70.1 69.2" xml:space="preserve">
<path fill="#a7a7a7" d="M86.5,79.5l-8.5-8.5l-6.8-6.8c3.5-4.9,5.6-10.9,5.6-17.4c0-16.6-13.5-30.2-30.2-30.2S16.3,30,16.3,46.7
	c0,16.6,13.5,30.2,30.2,30.2c7,0,13.3-2.4,18.4-6.3l11.7,11.7c0.1,0.1,0.3,0.3,0.5,0.4l3.1,3.1L86.5,79.5z M46.5,69.8
	c-12.7,0-23.1-10.4-23.1-23.1c0-12.7,10.4-23.1,23.1-23.1S69.6,34,69.6,46.7c0,5.3-1.8,10.2-4.8,14.1c-1,1.3-2.1,2.5-3.4,3.5
	C57.4,67.7,52.2,69.8,46.5,69.8z"/>
</svg>
