<?xml version="1.0" encoding="utf-8"?>
<!-- Generator: Adobe Illustrator 18.0.0, SVG Export Plug-In . SVG Version: 6.00 Build 0)  -->
<!DOCTYPE svg PUBLIC "-//W3C//DTD SVG 1.1//EN" "http://www.w3.org/Graphics/SVG/1.1/DTD/svg11.dtd">
<svg version="1.1" id="Layer_1" xmlns="http://www.w3.org/2000/svg" xmlns:xlink="http://www.w3.org/1999/xlink" x="0px" y="0px"
	 viewBox="0 0 101.1 101.1" enable-background="new 0 0 101.1 101.1" xml:space="preserve">
<circle fill="#2A97B8" cx="50.6" cy="50.5" r="50.6"/>
<path fill="#FFFFFF" d="M33.8,55.9V31.3c0,0-0.7-7.6,6.1-7.6c0,0,6.1-0.5,6.1,4.8v7.6h20c0,0,5.1,1.2,4.6,6.9c0,0-0.6,5.1-5.8,5.5
	H46.2v6.7c0,0-0.2,5.4,4.6,5.4h13.9c0,0,5.8,0.1,6,6.6c0,0-0.3,5.5-6.1,6H51C51,73.1,33.8,72.1,33.8,55.9z"/>
</svg>
