<?xml version="1.0" encoding="utf-8"?>
<!-- Generator: Adobe Illustrator 18.0.0, SVG Export Plug-In . SVG Version: 6.00 Build 0)  -->
<!DOCTYPE svg PUBLIC "-//W3C//DTD SVG 1.1//EN" "http://www.w3.org/Graphics/SVG/1.1/DTD/svg11.dtd">
<svg version="1.1" id="Layer_1" xmlns="http://www.w3.org/2000/svg" xmlns:xlink="http://www.w3.org/1999/xlink" x="0px" y="0px"
	 viewBox="0 0 101.4 101.4" enable-background="new 0 0 101.4 101.4" xml:space="preserve">
<circle fill="#436BAD" cx="50.7" cy="50.7" r="50.7"/>
<path fill="#FFFFFF" d="M80.5,65.9c-2.1-2.5-4.5-4.6-6.8-6.8c-2.1-2-2.2-3.2-0.5-5.5c1.8-2.6,3.8-5,5.6-7.5c1.7-2.4,3.5-4.7,4.4-7.6
	c0.6-1.8,0.1-2.6-1.8-2.9c-0.3-0.1-0.6-0.1-1-0.1l-11,0c-1.4,0-2.1,0.6-2.6,1.8c-0.6,1.6-1.3,3.2-2.1,4.8c-1.7,3.6-3.7,7-6.4,9.9
	c-0.6,0.6-1.3,1.5-2.3,1.1c-1.3-0.5-1.6-2.5-1.6-3.2l0-12.7c-0.2-1.8-0.6-2.6-2.4-3l-11.4,0c-1.5,0-2.3,0.6-3.1,1.5
	c-0.5,0.6-0.6,0.9,0.4,1.1c1.9,0.4,3,1.6,3.2,3.5c0.5,3,0.4,6.1,0.2,9.1c-0.1,0.9-0.2,1.8-0.6,2.6c-0.6,1.3-1.4,1.6-2.6,0.8
	C37,52,36.2,51,35.5,49.9c-2.7-3.9-4.9-8-6.7-12.4c-0.5-1.3-1.4-2-2.7-2.1c-3.3-0.1-6.6-0.1-9.9,0c-2,0-2.6,1-1.8,2.8
	C18,46.2,22,54,27.2,61.1c2.7,3.6,5.8,6.8,9.7,9.1c4.5,2.6,9.4,3.4,14.5,3.1c2.4-0.1,3.1-0.7,3.2-3.1c0.1-1.6,0.3-3.3,1.1-4.7
	c0.8-1.4,2-1.7,3.4-0.8c0.7,0.4,1.3,1,1.8,1.6c1.3,1.5,2.6,3,4,4.4c1.8,1.8,3.8,2.8,6.4,2.6l10.1,0c1.6-0.1,2.5-2.1,1.5-3.9
	C82.3,68.1,81.5,67,80.5,65.9z"/>
</svg>
